# xmcd
#
# Track frame offsets:
#	300
#	15157
#	35294
#	46152
#	56415
#	67150
#	86517
#	103338
#	122192
#	135619
#	145209
#	162678
#	175327
#	190207
#	207599
#	225627
#	241504
#	257267
#	271364
#	288363
#	311031
#
# Disc length: 4367 seconds
#
# Revision: 0
# Processed by: cddbd v1.5.1PL2 Copyright (c) Steve Scherf et al.
# Submitted via: audiograbber 1.83.01
#
DISCID=2e110b15
DTITLE=The Flying Burrito Brothers - Airborne - Flying Again
DYEAR=1900
DGENRE=Alternative Rock
TTITLE0=Easy Get On
TTITLE1=Wind And Rain
TTITLE2=Why Baby Why
TTITLE3=Dim Lights, Thick Smoke
TTITLE4=You Left The Water Running
TTITLE5=Building Fires
TTITLE6=Desert Childhood
TTITLE7=Bon Soir Blues
TTITLE8=River Road
TTITLE9=Hot Burrito No.3
TTITLE10=Out Of Control
TTITLE11=Waiting For Love To Begin
TTITLE12=Toe Tappin' Music
TTITLE13=Quiet Man
TTITLE14=Northbound
TTITLE15=Big Bayou
TTITLE16=Walk On The Water
TTITLE17=Linda Lu
TTITLE18=Border Town
TTITLE19=She's A Sailor
TTITLE20=Jesus Broke The Wild Horses
EXTD=Just released compilation by Acadia records Jul-2006
EXTT0=
EXTT1=
EXTT2=
EXTT3=
EXTT4=
EXTT5=
EXTT6=
EXTT7=
EXTT8=
EXTT9=
EXTT10=
EXTT11=
EXTT12=
EXTT13=
EXTT14=
EXTT15=
EXTT16=
EXTT17=
EXTT18=
EXTT19=
EXTT20=
PLAYORDER=
